<svg width="25" height="25" viewBox="0 0 25 25" fill="none" xmlns="http://www.w3.org/2000/svg">
<path d="M11.4487 17.2796C11.3174 17.2798 11.1874 17.2542 11.0661 17.2041C10.9448 17.154 10.8345 17.0804 10.7417 16.9876L6.49971 12.7446C6.40414 12.6524 6.32788 12.5421 6.27539 12.4201C6.22289 12.2982 6.19521 12.167 6.19397 12.0342C6.19272 11.9014 6.21793 11.7697 6.26812 11.6468C6.31832 11.5239 6.39249 11.4122 6.48632 11.3182C6.58014 11.2242 6.69174 11.1499 6.8146 11.0995C6.93746 11.0492 7.06912 11.0238 7.2019 11.0248C7.33468 11.0259 7.46592 11.0534 7.58796 11.1057C7.71 11.158 7.8204 11.2341 7.91271 11.3296L11.4477 14.8646L17.8127 8.50158C18.0002 8.31394 18.2546 8.20847 18.5199 8.20837C18.7851 8.20828 19.0396 8.31357 19.2272 8.50108C19.4149 8.68858 19.5203 8.94295 19.5204 9.20822C19.5205 9.47349 19.4152 9.72794 19.2277 9.91558L12.1557 16.9876C12.0629 17.0804 11.9527 17.154 11.8313 17.2041C11.71 17.2542 11.58 17.2798 11.4487 17.2796Z" fill="#2FAB73"/>
</svg>
